<?xml version="1.0" standalone="no"?>
<!DOCTYPE svg PUBLIC "-//W3C//DTD SVG 20010904//EN"
 "http://www.w3.org/TR/2001/REC-SVG-20010904/DTD/svg10.dtd">
<svg version="1.0" xmlns="http://www.w3.org/2000/svg"
 width="63.000000pt" height="69.000000pt" viewBox="0 0 63.000000 69.000000"
 preserveAspectRatio="xMidYMid meet">

<g transform="translate(0.000000,69.000000) scale(0.100000,-0.100000)"
fill="#000000" stroke="none">
<path d="M394 635 c-10 -40 1 -50 13 -11 6 20 7 36 2 36 -5 0 -11 -11 -15 -25z"/>
<path d="M170 628 c0 -14 23 -58 32 -58 4 0 8 3 8 8 -1 9 -39 59 -40 50z"/>
<path d="M275 539 c-45 -13 -105 -67 -126 -113 -24 -52 -24 -130 0 -181 25
-57 99 -118 165 -139 36 -11 57 -24 61 -37 10 -31 55 -59 95 -59 77 0 121 75
86 147 -14 29 -15 44 -6 92 35 192 -106 340 -275 290z m138 -23 c81 -33 134
-133 124 -232 -8 -74 -17 -87 -99 -134 -70 -40 -73 -41 -116 -29 -139 39 -214
188 -154 306 45 87 155 127 245 89z m133 -422 c-9 -34 -45 -64 -78 -64 -31 0
-83 43 -73 60 3 5 34 25 68 44 l62 35 13 -25 c8 -14 11 -37 8 -50z"/>
<path d="M268 449 c-25 -14 -22 -38 11 -91 30 -48 64 -74 81 -63 25 15 3 101
-38 148 -17 19 -29 21 -54 6z m54 -40 c10 -13 21 -39 24 -58 9 -45 -11 -38
-50 17 -43 61 -18 101 26 41z"/>
<path d="M360 265 c-22 -26 3 -67 38 -63 24 3 27 7 27 38 0 30 -4 35 -26 38
-14 2 -31 -4 -39 -13z m50 -25 c0 -11 -6 -20 -14 -20 -18 0 -29 16 -21 30 11
18 35 11 35 -10z"/>
<path d="M463 104 c-72 -43 -46 -63 27 -21 38 21 53 47 28 47 -7 0 -32 -12
-55 -26z"/>
<path d="M568 504 c-16 -8 -28 -19 -28 -25 0 -6 14 -2 30 8 17 9 30 21 30 25
0 10 0 10 -32 -8z"/>
<path d="M49 425 c18 -9 36 -14 39 -11 9 10 -2 15 -39 21 l-34 5 34 -15z"/>
<path d="M69 210 c-13 -10 -20 -19 -16 -20 11 0 67 29 67 35 0 12 -30 3 -51
-15z"/>
</g>
</svg>
